<svg width="100" height="100" viewBox="0 0 100 100" fill="none" xmlns="http://www.w3.org/2000/svg">
  <title>Chelal HMS Logo - Dark Mode</title>
  <desc>A medical cross with a heartbeat line, using Chelal HMS dark mode primary colors.</desc>
  <!-- Medical Cross Background -->
  <path d="M30 10 H70 C75.5228 10 80 14.4772 80 20 V30 H90 C95.5228 30 100 34.4772 100 40 V60 C100 65.5228 95.5228 70 90 70 H80 V80 C80 85.5228 75.5228 90 70 90 H30 C24.4772 90 20 85.5228 20 80 V70 H10 C4.47715 70 0 65.5228 0 60 V40 C0 34.4772 4.47715 30 10 30 H20 V20 C20 14.4772 24.4772 10 30 10 Z" fill="hsl(217.2, 91.2%, 59.8%)"/>
  <!-- ECG Line -->
  <path d="M20 50 H30 L35 40 L45 60 L55 35 L65 55 L70 50 H80" stroke="hsl(222.2, 84%, 4.9%)" stroke-width="6" stroke-linecap="round" stroke-linejoin="round"/>
</svg>
